<!-- icon666.com - MILLIONS vector ICONS FREE --><svg fill="none" viewBox="0 0 100 100" xmlns="http://www.w3.org/2000/svg"><path clip-rule="evenodd" d="m35.5 18.5c0-.8284-.6716-1.5-1.5-1.5s-1.5.6716-1.5 1.5v6h-7.5c-4.4183 0-8 3.5817-8 8v43c0 4.4183 3.5817 8 8 8h51c4.4183 0 8-3.5817 8-8v-43c0-4.4183-3.5817-8-8-8h-5.5v-6c0-.8284-.6716-1.5-1.5-1.5s-1.5.6716-1.5 1.5v6h-32zm-10.5 9h51c2.7614 0 5 2.2386 5 5v5.5h-61v-5.5c0-2.7614 2.2386-5 5-5zm-5 13.5v34.5c0 2.7614 2.2386 5 5 5h51c2.7614 0 5-2.2386 5-5v-34.5z" fill="rgb(0,0,0)" fill-rule="evenodd"></path></svg>