<!-- icon666.com - MILLIONS vector ICONS FREE --><svg fill="none" viewBox="0 0 24 24" xmlns="http://www.w3.org/2000/svg"><g fill="rgb(0,0,0)"><path d="m10 4.5c0 .27614-.22386.5-.5.5s-.5-.22386-.5-.5c0-.82843.67157-1.5 1.5-1.5h3c.8284 0 1.5.67157 1.5 1.5 0 .27614-.2239.5-.5.5s-.5-.22386-.5-.5-.2239-.5-.5-.5h-3c-.2761 0-.5.22386-.5.5zm-3.5-.5c.27614 0 .5.22386.5.5s-.22386.5-.5.5c-.82843 0-1.5.67157-1.5 1.5v12c0 .8284.67157 1.5 1.5 1.5h11c.8284 0 1.5-.6716 1.5-1.5v-12c0-.82843-.6716-1.5-1.5-1.5-.2761 0-.5-.22386-.5-.5s.2239-.5.5-.5c1.3807 0 2.5 1.11929 2.5 2.5v12c0 1.3807-1.1193 2.5-2.5 2.5h-11c-1.38071 0-2.5-1.1193-2.5-2.5v-12c0-1.38071 1.11929-2.5 2.5-2.5z"></path><path d="m15.1464 9.14645c.1953-.19527.5119-.19527.7072 0 .1952.19526.1952.51184 0 .7071l-5 5.00005c-.1953.1952-.5119.1952-.7072 0l-1.99995-2c-.19527-.1953-.19527-.5119 0-.7072.19526-.1952.51184-.1952.7071 0l1.64645 1.6465z"></path></g></svg>